<svg width="180" height="180" viewBox="0 0 180 180" fill="none" xmlns="http://www.w3.org/2000/svg">
<circle cx="90" cy="90" r="90" fill="#F90036"/>
<path d="M102.709 38.0191L101.656 106.429L77.7119 107.925L71 40L102.709 38.0191ZM103.936 126.296C104.055 128.194 103.799 129.986 103.168 131.671C102.537 133.356 101.633 134.842 100.458 136.128C99.3279 137.455 97.9648 138.514 96.3685 139.307C94.7749 140.143 93.0506 140.619 91.1955 140.735C89.2972 140.853 87.5055 140.597 85.8203 139.966C84.1378 139.378 82.6319 138.498 81.3026 137.325C80.0191 136.192 78.9595 134.829 78.1237 133.236C77.331 131.639 76.8753 129.892 76.7568 127.994C76.6409 126.139 76.8755 124.348 77.4607 122.623C78.089 120.894 78.9694 119.388 80.1019 118.105C81.2749 116.776 82.6582 115.693 84.2517 114.857C85.8453 114.021 87.5913 113.544 89.4895 113.426C91.3446 113.31 93.1148 113.567 94.8 114.198C96.4852 114.829 97.9709 115.733 99.257 116.908C100.584 118.038 101.666 119.421 102.505 121.058C103.343 122.695 103.82 124.441 103.936 126.296Z" fill="white"/>
</svg>
