<svg width="593" height="107" viewBox="0 0 593 107" fill="none" xmlns="http://www.w3.org/2000/svg">
<mask id="path-1-outside-1" maskUnits="userSpaceOnUse" x="0" y="0" width="593" height="107" fill="black">
<rect fill="white" width="593" height="107"/>
<path d="M78.0859 39.5312C78.0859 43.3203 77.5195 46.6797 76.3867 49.6094C75.2539 52.5391 73.6914 55.0977 71.6992 57.2852C69.7461 59.4727 67.4414 61.3281 64.7852 62.8516C62.1289 64.375 59.2773 65.625 56.2305 66.6016C53.2227 67.5391 50.0977 68.2422 46.8555 68.7109C43.6133 69.1406 40.4297 69.375 37.3047 69.4141V96.7188H10C10 87.7734 10.0195 78.8672 10.0586 70C10.0977 61.1328 10.1562 52.1875 10.2344 43.1641C10.3125 38.3984 10.332 33.6328 10.293 28.8672C10.2539 24.1016 10.3516 19.2969 10.5859 14.4531C15.5859 12.9688 20.5859 11.8555 25.5859 11.1133C30.5859 10.3711 35.7422 10 41.0547 10C44.0625 10 47.0703 10.2539 50.0781 10.7617C53.0859 11.2305 55.957 11.9922 58.6914 13.0469C61.4648 14.1016 64.0234 15.4297 66.3672 17.0312C68.75 18.5938 70.8008 20.4688 72.5195 22.6562C74.2383 24.8438 75.5859 27.3438 76.5625 30.1562C77.5781 32.9297 78.0859 36.0547 78.0859 39.5312ZM52.0703 41.5234C52.0703 38.9844 51.2891 37.0117 49.7266 35.6055C48.2031 34.1602 46.2109 33.4375 43.75 33.4375C42.9297 33.4375 42.0703 33.5156 41.1719 33.6719C40.3125 33.7891 39.4922 33.9453 38.7109 34.1406L38.0078 51.25C38.5547 51.3281 39.082 51.3672 39.5898 51.3672C40.0977 51.3672 40.625 51.3672 41.1719 51.3672C42.5781 51.3672 43.9258 51.1328 45.2148 50.6641C46.543 50.1953 47.7148 49.5312 48.7305 48.6719C49.7461 47.7734 50.5469 46.7383 51.1328 45.5664C51.7578 44.3555 52.0703 43.0078 52.0703 41.5234Z"/>
<path d="M149.98 39.4141C149.98 42.4609 149.707 45.2344 149.16 47.7344C148.652 50.1953 147.832 52.4609 146.699 54.5312C145.566 56.6016 144.102 58.5156 142.305 60.2734C140.508 62.0312 138.34 63.7109 135.801 65.3125L149.746 90.1562L123.379 95.3125L114.355 70.3516L107.09 70.5859L106.035 94.9609H80.8398C81.0352 86.0547 81.2109 77.1875 81.3672 68.3594C81.5625 59.5312 81.7773 50.6641 82.0117 41.7578C82.0898 37.2656 82.168 32.8125 82.2461 28.3984C82.3242 23.9844 82.4805 19.5312 82.7148 15.0391C85.4492 14.0234 88.1445 13.1836 90.8008 12.5195C93.457 11.8555 96.1133 11.3477 98.7695 10.9961C101.465 10.6055 104.18 10.3516 106.914 10.2344C109.688 10.0781 112.52 10 115.41 10C119.863 10 124.16 10.625 128.301 11.875C132.48 13.0859 136.172 14.9219 139.375 17.3828C142.578 19.8438 145.137 22.9102 147.051 26.582C149.004 30.2539 149.98 34.5312 149.98 39.4141ZM123.73 41.2891C123.73 39.6484 123.496 38.1445 123.027 36.7773C122.598 35.4102 121.934 34.2383 121.035 33.2617C120.176 32.2461 119.082 31.4648 117.754 30.918C116.465 30.332 114.941 30.0391 113.184 30.0391C112.402 30.0391 111.641 30.0977 110.898 30.2148C110.156 30.293 109.434 30.4297 108.73 30.625L107.793 52.4219H109.199C110.879 52.4219 112.578 52.207 114.297 51.7773C116.055 51.3477 117.617 50.6836 118.984 49.7852C120.391 48.8867 121.523 47.7344 122.383 46.3281C123.281 44.9219 123.73 43.2422 123.73 41.2891Z"/>
<path d="M227.969 90.8594L198.906 94.6094L195.391 81.3672H182.031L179.102 94.6094L149.219 91.6797L172.539 13.6328L205.117 11.9922L227.969 90.8594ZM193.281 63.4375L188.828 43.0469L184.492 63.4375H193.281Z"/>
<path d="M283.984 13.2812L283.398 38.125L265.938 38.8281L263.828 93.2031L239.102 94.4922L236.875 40.1172L219.414 41.0547L220.117 13.3984L283.984 13.2812Z"/>
<path d="M356.875 93.5547L327.578 94.9609L327.344 70.2344H313.867L313.047 95.8984H286.797L289.023 13.5156L316.914 14.8047L315.156 56.875H328.164L328.281 12.8125L355 13.5156L356.875 93.5547Z"/>
<path d="M393.027 13.3984L388.926 93.2031L364.199 94.4922L361.855 15.0391L393.027 13.3984Z"/>
<path d="M500.254 56.1719C500.254 61.7578 500.078 67.3242 499.727 72.8711C499.375 78.418 498.965 83.9844 498.496 89.5703L468.379 90.9766C469.277 84.1797 470.078 77.3828 470.781 70.5859C471.523 63.75 471.895 56.9141 471.895 50.0781C471.895 49.6484 471.875 48.9062 471.836 47.8516C471.797 46.7578 471.719 45.5273 471.602 44.1602C471.523 42.793 471.387 41.3867 471.191 39.9414C471.035 38.457 470.801 37.1094 470.488 35.8984C470.215 34.6484 469.863 33.6328 469.434 32.8516C469.004 32.0703 468.496 31.6797 467.91 31.6797C466.543 31.6797 465.469 32.207 464.688 33.2617C463.906 34.2773 463.32 35.5078 462.93 36.9531C462.578 38.3984 462.363 39.8828 462.285 41.4062C462.207 42.8906 462.168 44.1016 462.168 45.0391C462.168 46.6797 462.207 48.3203 462.285 49.9609C462.363 51.6016 462.402 53.2812 462.402 55C462.402 61.0547 462.246 67.0898 461.934 73.1055C461.66 79.1211 461.309 85.1562 460.879 91.2109L433.105 92.2656C434.004 85.4688 434.785 78.6914 435.449 71.9336C436.152 65.1367 436.504 58.3203 436.504 51.4844C436.504 51.0547 436.484 50.2734 436.445 49.1406C436.406 48.0078 436.328 46.7383 436.211 45.332C436.133 43.9258 435.996 42.4609 435.801 40.9375C435.605 39.4141 435.352 38.0273 435.039 36.7773C434.766 35.4883 434.414 34.4336 433.984 33.6133C433.555 32.793 433.027 32.3828 432.402 32.3828C431.426 32.3828 430.605 32.7734 429.941 33.5547C429.277 34.2969 428.73 35.2734 428.301 36.4844C427.91 37.6953 427.598 39.043 427.363 40.5273C427.168 41.9727 427.012 43.3984 426.895 44.8047C426.816 46.2109 426.758 47.5195 426.719 48.7305C426.719 49.9023 426.699 50.7812 426.66 51.3672L425.371 94.1406H395.84C396.465 87.5391 397.09 80.918 397.715 74.2773C398.379 67.6367 398.945 61.0156 399.414 54.4141C399.922 47.7734 400.332 41.1328 400.645 34.4922C400.957 27.8516 401.113 21.2109 401.113 14.5703L429.004 13.3984L428.887 20.1953C429.746 19.1016 430.723 18.0078 431.816 16.9141C432.91 15.7812 434.062 14.7852 435.273 13.9258C436.523 13.0273 437.832 12.3047 439.199 11.7578C440.605 11.2109 442.051 10.9375 443.535 10.9375C445.449 10.9375 447.168 11.0938 448.691 11.4062C450.215 11.6797 451.582 12.168 452.793 12.8711C454.043 13.5742 455.137 14.5508 456.074 15.8008C457.012 17.0117 457.832 18.5547 458.535 20.4297C459.785 19.0625 461.035 17.793 462.285 16.6211C463.574 15.4492 464.922 14.4531 466.328 13.6328C467.734 12.7734 469.258 12.1094 470.898 11.6406C472.539 11.1719 474.355 10.9375 476.348 10.9375C480.137 10.9375 483.359 11.6797 486.016 13.1641C488.672 14.6094 490.879 16.543 492.637 18.9648C494.434 21.3867 495.82 24.1602 496.797 27.2852C497.812 30.4102 498.574 33.6523 499.082 37.0117C499.59 40.3711 499.902 43.7109 500.02 47.0312C500.176 50.3516 500.254 53.3984 500.254 56.1719Z"/>
<path d="M579.531 90.8594L550.469 94.6094L546.953 81.3672H533.594L530.664 94.6094L500.781 91.6797L524.102 13.6328L556.68 11.9922L579.531 90.8594ZM544.844 63.4375L540.391 43.0469L536.055 63.4375H544.844Z"/>
</mask>
<path d="M78.0859 39.5312C78.0859 43.3203 77.5195 46.6797 76.3867 49.6094C75.2539 52.5391 73.6914 55.0977 71.6992 57.2852C69.7461 59.4727 67.4414 61.3281 64.7852 62.8516C62.1289 64.375 59.2773 65.625 56.2305 66.6016C53.2227 67.5391 50.0977 68.2422 46.8555 68.7109C43.6133 69.1406 40.4297 69.375 37.3047 69.4141V96.7188H10C10 87.7734 10.0195 78.8672 10.0586 70C10.0977 61.1328 10.1562 52.1875 10.2344 43.1641C10.3125 38.3984 10.332 33.6328 10.293 28.8672C10.2539 24.1016 10.3516 19.2969 10.5859 14.4531C15.5859 12.9688 20.5859 11.8555 25.5859 11.1133C30.5859 10.3711 35.7422 10 41.0547 10C44.0625 10 47.0703 10.2539 50.0781 10.7617C53.0859 11.2305 55.957 11.9922 58.6914 13.0469C61.4648 14.1016 64.0234 15.4297 66.3672 17.0312C68.75 18.5938 70.8008 20.4688 72.5195 22.6562C74.2383 24.8438 75.5859 27.3438 76.5625 30.1562C77.5781 32.9297 78.0859 36.0547 78.0859 39.5312ZM52.0703 41.5234C52.0703 38.9844 51.2891 37.0117 49.7266 35.6055C48.2031 34.1602 46.2109 33.4375 43.75 33.4375C42.9297 33.4375 42.0703 33.5156 41.1719 33.6719C40.3125 33.7891 39.4922 33.9453 38.7109 34.1406L38.0078 51.25C38.5547 51.3281 39.082 51.3672 39.5898 51.3672C40.0977 51.3672 40.625 51.3672 41.1719 51.3672C42.5781 51.3672 43.9258 51.1328 45.2148 50.6641C46.543 50.1953 47.7148 49.5312 48.7305 48.6719C49.7461 47.7734 50.5469 46.7383 51.1328 45.5664C51.7578 44.3555 52.0703 43.0078 52.0703 41.5234Z" fill="white"/>
<path d="M149.98 39.4141C149.98 42.4609 149.707 45.2344 149.16 47.7344C148.652 50.1953 147.832 52.4609 146.699 54.5312C145.566 56.6016 144.102 58.5156 142.305 60.2734C140.508 62.0312 138.34 63.7109 135.801 65.3125L149.746 90.1562L123.379 95.3125L114.355 70.3516L107.09 70.5859L106.035 94.9609H80.8398C81.0352 86.0547 81.2109 77.1875 81.3672 68.3594C81.5625 59.5312 81.7773 50.6641 82.0117 41.7578C82.0898 37.2656 82.168 32.8125 82.2461 28.3984C82.3242 23.9844 82.4805 19.5312 82.7148 15.0391C85.4492 14.0234 88.1445 13.1836 90.8008 12.5195C93.457 11.8555 96.1133 11.3477 98.7695 10.9961C101.465 10.6055 104.18 10.3516 106.914 10.2344C109.688 10.0781 112.52 10 115.41 10C119.863 10 124.16 10.625 128.301 11.875C132.48 13.0859 136.172 14.9219 139.375 17.3828C142.578 19.8438 145.137 22.9102 147.051 26.582C149.004 30.2539 149.98 34.5312 149.98 39.4141ZM123.73 41.2891C123.73 39.6484 123.496 38.1445 123.027 36.7773C122.598 35.4102 121.934 34.2383 121.035 33.2617C120.176 32.2461 119.082 31.4648 117.754 30.918C116.465 30.332 114.941 30.0391 113.184 30.0391C112.402 30.0391 111.641 30.0977 110.898 30.2148C110.156 30.293 109.434 30.4297 108.73 30.625L107.793 52.4219H109.199C110.879 52.4219 112.578 52.207 114.297 51.7773C116.055 51.3477 117.617 50.6836 118.984 49.7852C120.391 48.8867 121.523 47.7344 122.383 46.3281C123.281 44.9219 123.73 43.2422 123.73 41.2891Z" fill="white"/>
<path d="M227.969 90.8594L198.906 94.6094L195.391 81.3672H182.031L179.102 94.6094L149.219 91.6797L172.539 13.6328L205.117 11.9922L227.969 90.8594ZM193.281 63.4375L188.828 43.0469L184.492 63.4375H193.281Z" fill="white"/>
<path d="M283.984 13.2812L283.398 38.125L265.938 38.8281L263.828 93.2031L239.102 94.4922L236.875 40.1172L219.414 41.0547L220.117 13.3984L283.984 13.2812Z" fill="white"/>
<path d="M356.875 93.5547L327.578 94.9609L327.344 70.2344H313.867L313.047 95.8984H286.797L289.023 13.5156L316.914 14.8047L315.156 56.875H328.164L328.281 12.8125L355 13.5156L356.875 93.5547Z" fill="white"/>
<path d="M393.027 13.3984L388.926 93.2031L364.199 94.4922L361.855 15.0391L393.027 13.3984Z" fill="white"/>
<path d="M500.254 56.1719C500.254 61.7578 500.078 67.3242 499.727 72.8711C499.375 78.418 498.965 83.9844 498.496 89.5703L468.379 90.9766C469.277 84.1797 470.078 77.3828 470.781 70.5859C471.523 63.75 471.895 56.9141 471.895 50.0781C471.895 49.6484 471.875 48.9062 471.836 47.8516C471.797 46.7578 471.719 45.5273 471.602 44.1602C471.523 42.793 471.387 41.3867 471.191 39.9414C471.035 38.457 470.801 37.1094 470.488 35.8984C470.215 34.6484 469.863 33.6328 469.434 32.8516C469.004 32.0703 468.496 31.6797 467.91 31.6797C466.543 31.6797 465.469 32.207 464.688 33.2617C463.906 34.2773 463.32 35.5078 462.93 36.9531C462.578 38.3984 462.363 39.8828 462.285 41.4062C462.207 42.8906 462.168 44.1016 462.168 45.0391C462.168 46.6797 462.207 48.3203 462.285 49.9609C462.363 51.6016 462.402 53.2812 462.402 55C462.402 61.0547 462.246 67.0898 461.934 73.1055C461.66 79.1211 461.309 85.1562 460.879 91.2109L433.105 92.2656C434.004 85.4688 434.785 78.6914 435.449 71.9336C436.152 65.1367 436.504 58.3203 436.504 51.4844C436.504 51.0547 436.484 50.2734 436.445 49.1406C436.406 48.0078 436.328 46.7383 436.211 45.332C436.133 43.9258 435.996 42.4609 435.801 40.9375C435.605 39.4141 435.352 38.0273 435.039 36.7773C434.766 35.4883 434.414 34.4336 433.984 33.6133C433.555 32.793 433.027 32.3828 432.402 32.3828C431.426 32.3828 430.605 32.7734 429.941 33.5547C429.277 34.2969 428.73 35.2734 428.301 36.4844C427.91 37.6953 427.598 39.043 427.363 40.5273C427.168 41.9727 427.012 43.3984 426.895 44.8047C426.816 46.2109 426.758 47.5195 426.719 48.7305C426.719 49.9023 426.699 50.7812 426.66 51.3672L425.371 94.1406H395.84C396.465 87.5391 397.09 80.918 397.715 74.2773C398.379 67.6367 398.945 61.0156 399.414 54.4141C399.922 47.7734 400.332 41.1328 400.645 34.4922C400.957 27.8516 401.113 21.2109 401.113 14.5703L429.004 13.3984L428.887 20.1953C429.746 19.1016 430.723 18.0078 431.816 16.9141C432.91 15.7812 434.062 14.7852 435.273 13.9258C436.523 13.0273 437.832 12.3047 439.199 11.7578C440.605 11.2109 442.051 10.9375 443.535 10.9375C445.449 10.9375 447.168 11.0938 448.691 11.4062C450.215 11.6797 451.582 12.168 452.793 12.8711C454.043 13.5742 455.137 14.5508 456.074 15.8008C457.012 17.0117 457.832 18.5547 458.535 20.4297C459.785 19.0625 461.035 17.793 462.285 16.6211C463.574 15.4492 464.922 14.4531 466.328 13.6328C467.734 12.7734 469.258 12.1094 470.898 11.6406C472.539 11.1719 474.355 10.9375 476.348 10.9375C480.137 10.9375 483.359 11.6797 486.016 13.1641C488.672 14.6094 490.879 16.543 492.637 18.9648C494.434 21.3867 495.82 24.1602 496.797 27.2852C497.812 30.4102 498.574 33.6523 499.082 37.0117C499.59 40.3711 499.902 43.7109 500.02 47.0312C500.176 50.3516 500.254 53.3984 500.254 56.1719Z" fill="white"/>
<path d="M579.531 90.8594L550.469 94.6094L546.953 81.3672H533.594L530.664 94.6094L500.781 91.6797L524.102 13.6328L556.68 11.9922L579.531 90.8594ZM544.844 63.4375L540.391 43.0469L536.055 63.4375H544.844Z" fill="white"/>
<path d="M78.0859 39.5312C78.0859 43.3203 77.5195 46.6797 76.3867 49.6094C75.2539 52.5391 73.6914 55.0977 71.6992 57.2852C69.7461 59.4727 67.4414 61.3281 64.7852 62.8516C62.1289 64.375 59.2773 65.625 56.2305 66.6016C53.2227 67.5391 50.0977 68.2422 46.8555 68.7109C43.6133 69.1406 40.4297 69.375 37.3047 69.4141V96.7188H10C10 87.7734 10.0195 78.8672 10.0586 70C10.0977 61.1328 10.1562 52.1875 10.2344 43.1641C10.3125 38.3984 10.332 33.6328 10.293 28.8672C10.2539 24.1016 10.3516 19.2969 10.5859 14.4531C15.5859 12.9688 20.5859 11.8555 25.5859 11.1133C30.5859 10.3711 35.7422 10 41.0547 10C44.0625 10 47.0703 10.2539 50.0781 10.7617C53.0859 11.2305 55.957 11.9922 58.6914 13.0469C61.4648 14.1016 64.0234 15.4297 66.3672 17.0312C68.75 18.5938 70.8008 20.4688 72.5195 22.6562C74.2383 24.8438 75.5859 27.3438 76.5625 30.1562C77.5781 32.9297 78.0859 36.0547 78.0859 39.5312ZM52.0703 41.5234C52.0703 38.9844 51.2891 37.0117 49.7266 35.6055C48.2031 34.1602 46.2109 33.4375 43.75 33.4375C42.9297 33.4375 42.0703 33.5156 41.1719 33.6719C40.3125 33.7891 39.4922 33.9453 38.7109 34.1406L38.0078 51.25C38.5547 51.3281 39.082 51.3672 39.5898 51.3672C40.0977 51.3672 40.625 51.3672 41.1719 51.3672C42.5781 51.3672 43.9258 51.1328 45.2148 50.6641C46.543 50.1953 47.7148 49.5312 48.7305 48.6719C49.7461 47.7734 50.5469 46.7383 51.1328 45.5664C51.7578 44.3555 52.0703 43.0078 52.0703 41.5234Z" stroke="black" stroke-width="20" mask="url(#path-1-outside-1)"/>
<path d="M149.98 39.4141C149.98 42.4609 149.707 45.2344 149.16 47.7344C148.652 50.1953 147.832 52.4609 146.699 54.5312C145.566 56.6016 144.102 58.5156 142.305 60.2734C140.508 62.0312 138.34 63.7109 135.801 65.3125L149.746 90.1562L123.379 95.3125L114.355 70.3516L107.09 70.5859L106.035 94.9609H80.8398C81.0352 86.0547 81.2109 77.1875 81.3672 68.3594C81.5625 59.5312 81.7773 50.6641 82.0117 41.7578C82.0898 37.2656 82.168 32.8125 82.2461 28.3984C82.3242 23.9844 82.4805 19.5312 82.7148 15.0391C85.4492 14.0234 88.1445 13.1836 90.8008 12.5195C93.457 11.8555 96.1133 11.3477 98.7695 10.9961C101.465 10.6055 104.18 10.3516 106.914 10.2344C109.688 10.0781 112.52 10 115.41 10C119.863 10 124.16 10.625 128.301 11.875C132.48 13.0859 136.172 14.9219 139.375 17.3828C142.578 19.8438 145.137 22.9102 147.051 26.582C149.004 30.2539 149.98 34.5312 149.98 39.4141ZM123.73 41.2891C123.73 39.6484 123.496 38.1445 123.027 36.7773C122.598 35.4102 121.934 34.2383 121.035 33.2617C120.176 32.2461 119.082 31.4648 117.754 30.918C116.465 30.332 114.941 30.0391 113.184 30.0391C112.402 30.0391 111.641 30.0977 110.898 30.2148C110.156 30.293 109.434 30.4297 108.73 30.625L107.793 52.4219H109.199C110.879 52.4219 112.578 52.207 114.297 51.7773C116.055 51.3477 117.617 50.6836 118.984 49.7852C120.391 48.8867 121.523 47.7344 122.383 46.3281C123.281 44.9219 123.73 43.2422 123.73 41.2891Z" stroke="black" stroke-width="20" mask="url(#path-1-outside-1)"/>
<path d="M227.969 90.8594L198.906 94.6094L195.391 81.3672H182.031L179.102 94.6094L149.219 91.6797L172.539 13.6328L205.117 11.9922L227.969 90.8594ZM193.281 63.4375L188.828 43.0469L184.492 63.4375H193.281Z" stroke="black" stroke-width="20" mask="url(#path-1-outside-1)"/>
<path d="M283.984 13.2812L283.398 38.125L265.938 38.8281L263.828 93.2031L239.102 94.4922L236.875 40.1172L219.414 41.0547L220.117 13.3984L283.984 13.2812Z" stroke="black" stroke-width="20" mask="url(#path-1-outside-1)"/>
<path d="M356.875 93.5547L327.578 94.9609L327.344 70.2344H313.867L313.047 95.8984H286.797L289.023 13.5156L316.914 14.8047L315.156 56.875H328.164L328.281 12.8125L355 13.5156L356.875 93.5547Z" stroke="black" stroke-width="20" mask="url(#path-1-outside-1)"/>
<path d="M393.027 13.3984L388.926 93.2031L364.199 94.4922L361.855 15.0391L393.027 13.3984Z" stroke="black" stroke-width="20" mask="url(#path-1-outside-1)"/>
<path d="M500.254 56.1719C500.254 61.7578 500.078 67.3242 499.727 72.8711C499.375 78.418 498.965 83.9844 498.496 89.5703L468.379 90.9766C469.277 84.1797 470.078 77.3828 470.781 70.5859C471.523 63.75 471.895 56.9141 471.895 50.0781C471.895 49.6484 471.875 48.9062 471.836 47.8516C471.797 46.7578 471.719 45.5273 471.602 44.1602C471.523 42.793 471.387 41.3867 471.191 39.9414C471.035 38.457 470.801 37.1094 470.488 35.8984C470.215 34.6484 469.863 33.6328 469.434 32.8516C469.004 32.0703 468.496 31.6797 467.91 31.6797C466.543 31.6797 465.469 32.207 464.688 33.2617C463.906 34.2773 463.32 35.5078 462.93 36.9531C462.578 38.3984 462.363 39.8828 462.285 41.4062C462.207 42.8906 462.168 44.1016 462.168 45.0391C462.168 46.6797 462.207 48.3203 462.285 49.9609C462.363 51.6016 462.402 53.2812 462.402 55C462.402 61.0547 462.246 67.0898 461.934 73.1055C461.66 79.1211 461.309 85.1562 460.879 91.2109L433.105 92.2656C434.004 85.4688 434.785 78.6914 435.449 71.9336C436.152 65.1367 436.504 58.3203 436.504 51.4844C436.504 51.0547 436.484 50.2734 436.445 49.1406C436.406 48.0078 436.328 46.7383 436.211 45.332C436.133 43.9258 435.996 42.4609 435.801 40.9375C435.605 39.4141 435.352 38.0273 435.039 36.7773C434.766 35.4883 434.414 34.4336 433.984 33.6133C433.555 32.793 433.027 32.3828 432.402 32.3828C431.426 32.3828 430.605 32.7734 429.941 33.5547C429.277 34.2969 428.73 35.2734 428.301 36.4844C427.91 37.6953 427.598 39.043 427.363 40.5273C427.168 41.9727 427.012 43.3984 426.895 44.8047C426.816 46.2109 426.758 47.5195 426.719 48.7305C426.719 49.9023 426.699 50.7812 426.66 51.3672L425.371 94.1406H395.84C396.465 87.5391 397.09 80.918 397.715 74.2773C398.379 67.6367 398.945 61.0156 399.414 54.4141C399.922 47.7734 400.332 41.1328 400.645 34.4922C400.957 27.8516 401.113 21.2109 401.113 14.5703L429.004 13.3984L428.887 20.1953C429.746 19.1016 430.723 18.0078 431.816 16.9141C432.91 15.7812 434.062 14.7852 435.273 13.9258C436.523 13.0273 437.832 12.3047 439.199 11.7578C440.605 11.2109 442.051 10.9375 443.535 10.9375C445.449 10.9375 447.168 11.0938 448.691 11.4062C450.215 11.6797 451.582 12.168 452.793 12.8711C454.043 13.5742 455.137 14.5508 456.074 15.8008C457.012 17.0117 457.832 18.5547 458.535 20.4297C459.785 19.0625 461.035 17.793 462.285 16.6211C463.574 15.4492 464.922 14.4531 466.328 13.6328C467.734 12.7734 469.258 12.1094 470.898 11.6406C472.539 11.1719 474.355 10.9375 476.348 10.9375C480.137 10.9375 483.359 11.6797 486.016 13.1641C488.672 14.6094 490.879 16.543 492.637 18.9648C494.434 21.3867 495.82 24.1602 496.797 27.2852C497.812 30.4102 498.574 33.6523 499.082 37.0117C499.59 40.3711 499.902 43.7109 500.02 47.0312C500.176 50.3516 500.254 53.3984 500.254 56.1719Z" stroke="black" stroke-width="20" mask="url(#path-1-outside-1)"/>
<path d="M579.531 90.8594L550.469 94.6094L546.953 81.3672H533.594L530.664 94.6094L500.781 91.6797L524.102 13.6328L556.68 11.9922L579.531 90.8594ZM544.844 63.4375L540.391 43.0469L536.055 63.4375H544.844Z" stroke="black" stroke-width="20" mask="url(#path-1-outside-1)"/>
</svg>
